<svg width="238" height="62" viewBox="0 0 238 62" fill="none" xmlns="http://www.w3.org/2000/svg">
<path d="M139.942 46.6213C138.879 48.2602 136.54 54.392 133.052 53.0527C133.338 52.7914 133.671 52.5621 133.953 52.3C135.071 51.2597 135.705 49.9531 136.483 48.7277C137.29 47.458 138.123 46.2098 138.833 44.8968C140.225 42.3218 141.455 39.6312 142.35 36.9023C143.065 34.7228 143.72 32.5913 143.64 30.3121C143.575 28.4584 143.414 26.4705 142.712 24.7012C142.323 23.7214 141.546 22.7501 140.16 22.8227C138.65 22.9017 137.467 24.1925 136.615 25.1222L136.578 25.1631C134.402 27.537 133.009 30.5499 131.698 33.3239C131.129 34.5267 130.427 36.2594 128.717 36.582C127.58 36.7968 126.494 36.2353 125.715 35.5966C124.644 34.7176 123.95 33.5765 122.909 32.671C121.993 31.8739 121.025 31.0653 119.972 30.3983C118.879 29.7053 117.469 29.0887 116.202 28.6676C115.086 28.2967 114.194 28.5681 113.135 28.9263C109.858 30.034 111.003 32.8577 112.011 35.0669C112.723 36.6297 113.591 38.1657 114.65 39.5815C115.799 41.1166 117.594 42.3472 119.052 43.6527C121.572 45.9099 123.958 48.2627 126.702 50.3291C128.418 51.6217 130.149 52.9027 131.944 54.1169C133.806 55.3764 135.637 56.7086 137.694 57.7323C138.453 58.1096 140.104 58.7008 138.847 59.4815C136.706 60.8124 134.462 59.2838 132.691 58.225C130.932 57.1738 129.474 55.8317 127.695 54.8068C125.467 53.5233 123.71 51.9585 121.742 50.403C120.267 49.2377 118.665 48.2008 117.173 47.0525C116.08 46.2105 115.111 45.2765 114.063 44.3979C113.073 43.5683 111.928 42.9507 111.068 42.002C110.384 41.2475 109.754 40.4333 109.212 39.6C107.817 37.4588 107.021 35.2976 106.652 32.8743C106.49 31.8097 106.388 30.8702 107.022 29.8933C107.736 28.7924 108.775 27.8022 110.089 27.2141C112.355 26.2004 115.373 25.8381 117.768 26.6659C120.51 27.6133 122.69 29.1895 125.063 30.6385C126.077 31.258 127.033 31.9775 128.05 32.5786C128.585 32.8945 128.773 32.4771 128.964 32.1106C129.643 30.8108 130.253 29.5266 131.139 28.3104C131.805 27.3967 132.464 26.5242 133.054 25.5696C133.834 24.3055 134.475 23.1361 135.947 22.3607C136.967 21.8233 138.025 21.3224 139.188 21.0489C141.414 20.5253 144.148 21.2427 145.714 22.6995C148.311 25.114 147.383 28.4803 146.795 31.316C145.678 36.7023 143.029 41.8622 139.942 46.6213Z" fill="#5A3FCC"/>
<path d="M104.677 37.4968C106.112 36.106 107.808 34.7657 108.432 32.8575C109.272 30.2852 108.331 27.6159 106.539 25.588C104.98 23.8243 102.448 22.4329 99.9695 22.3067C97.4089 22.1763 96.4872 23.2594 95.7544 25.3331C94.7092 28.2912 95.2989 33.5615 97.8994 35.6986C99.7659 37.2325 102.699 37.8211 105.126 37.4231" stroke="#5A3FCC" stroke-opacity="0.8" stroke-width="3" stroke-linecap="round" stroke-linejoin="round"/>
<path d="M106.793 9.00223C108.31 7.92971 110.303 7.51703 112.143 7.16256C114.104 6.78488 115.242 7.75634 116.618 8.99043C118.614 10.7809 119.83 12.8546 120.206 15.4175C120.503 17.4437 120.967 20.3879 119.344 22.0568C117.666 23.7815 114.748 23.9043 112.752 22.5992C109.429 20.4276 107.341 15.8869 106.717 12.257C106.579 11.456 106.212 9.40583 107.148 8.82534C107.635 8.52331 108.144 8.27199 108.619 7.94088" stroke="#5A3FCC" stroke-opacity="0.8" stroke-width="3" stroke-linecap="round" stroke-linejoin="round"/>
<path d="M132.858 19.9701C137.899 19.3003 141.416 12.2535 139.881 8.05947C138.539 4.38982 133.93 -0.338933 129.626 3.31879C125.853 6.52448 126.229 12.6726 128.332 16.5856C129.488 18.7346 132.888 20.9667 135.368 19.121" stroke="#5A3FCC" stroke-opacity="0.8" stroke-width="3" stroke-linecap="round" stroke-linejoin="round"/>
<path d="M144.249 18.553C145.351 17.0426 146.596 15.9062 148.226 14.8745C149.869 13.8357 152.308 12.131 154.39 13.0645C156.402 13.9666 157.027 15.831 156.901 17.7661C156.682 21.1067 155.832 24.9565 153.923 27.8363C152.65 29.7554 150.695 30.2318 148.461 29.3741C145.342 28.1765 144.726 24.9971 144.537 22.1873C144.436 20.6703 144.377 19.1408 145.025 17.7463" stroke="#5A3FCC" stroke-opacity="0.8" stroke-width="3" stroke-linecap="round" stroke-linejoin="round"/>
<path d="M18.5938 49.1406H8.32031L6.36719 55H0.136719L10.7227 26.5625H16.1523L26.7969 55H20.5664L18.5938 49.1406ZM9.90234 44.3945H17.0117L13.4375 33.75L9.90234 44.3945ZM34.2375 33.8672L34.4133 36.2305C35.9107 34.3945 37.9354 33.4766 40.4875 33.4766C43.2089 33.4766 45.0773 34.5508 46.093 36.6992C47.5773 34.5508 49.6932 33.4766 52.4406 33.4766C54.7323 33.4766 56.438 34.1471 57.5578 35.4883C58.6776 36.8164 59.2375 38.8216 59.2375 41.5039V55H53.5734V41.5234C53.5734 40.3255 53.3391 39.4531 52.8703 38.9062C52.4016 38.3464 51.5747 38.0664 50.3898 38.0664C48.6971 38.0664 47.5253 38.8737 46.8742 40.4883L46.8937 55H41.2492V41.543C41.2492 40.319 41.0083 39.4336 40.5266 38.8867C40.0448 38.3398 39.2245 38.0664 38.0656 38.0664C36.4641 38.0664 35.3052 38.7305 34.5891 40.0586V55H28.9445V33.8672H34.2375ZM63.5141 44.2383C63.5141 42.1419 63.9177 40.2734 64.725 38.6328C65.5323 36.9922 66.6911 35.7227 68.2016 34.8242C69.725 33.9258 71.4893 33.4766 73.4945 33.4766C76.3461 33.4766 78.6703 34.349 80.4672 36.0938C82.2771 37.8385 83.2862 40.2083 83.4945 43.2031L83.5336 44.6484C83.5336 47.8906 82.6286 50.4948 80.8187 52.4609C79.0089 54.4141 76.5805 55.3906 73.5336 55.3906C70.4867 55.3906 68.0518 54.4141 66.2289 52.4609C64.419 50.5078 63.5141 47.8516 63.5141 44.4922V44.2383ZM69.1586 44.6484C69.1586 46.6536 69.5362 48.1901 70.2914 49.2578C71.0466 50.3125 72.1273 50.8398 73.5336 50.8398C74.9008 50.8398 75.9685 50.319 76.7367 49.2773C77.5049 48.2227 77.8891 46.543 77.8891 44.2383C77.8891 42.2721 77.5049 40.7487 76.7367 39.668C75.9685 38.5872 74.8878 38.0469 73.4945 38.0469C72.1143 38.0469 71.0466 38.5872 70.2914 39.668C69.5362 40.7357 69.1586 42.3958 69.1586 44.6484ZM99.6852 39.1602C98.9169 39.056 98.2398 39.0039 97.6539 39.0039C95.5185 39.0039 94.1188 39.7266 93.4547 41.1719V55H87.8102V33.8672H93.1422L93.2984 36.3867C94.4313 34.4466 96.0003 33.4766 98.0055 33.4766C98.6305 33.4766 99.2164 33.5612 99.7633 33.7305L99.6852 39.1602Z" fill="#5A3FCC" fill-opacity="0.9"/>
<path d="M156.398 44.9805V55H150.539V26.5625H161.633C163.768 26.5625 165.643 26.9531 167.258 27.7344C168.885 28.5156 170.135 29.6289 171.008 31.0742C171.88 32.5065 172.316 34.1406 172.316 35.9766C172.316 38.763 171.359 40.9635 169.445 42.5781C167.544 44.1797 164.908 44.9805 161.535 44.9805H156.398ZM156.398 40.2344H161.633C163.182 40.2344 164.361 39.8698 165.168 39.1406C165.988 38.4115 166.398 37.3698 166.398 36.0156C166.398 34.6224 165.988 33.4961 165.168 32.6367C164.348 31.7773 163.215 31.3346 161.77 31.3086H156.398V40.2344ZM186.241 55.3906C183.142 55.3906 180.616 54.4401 178.663 52.5391C176.723 50.638 175.753 48.1055 175.753 44.9414V44.3945C175.753 42.2721 176.163 40.3776 176.984 38.7109C177.804 37.0312 178.963 35.7422 180.46 34.8438C181.971 33.9323 183.689 33.4766 185.616 33.4766C188.507 33.4766 190.779 34.388 192.433 36.2109C194.099 38.0339 194.933 40.6185 194.933 43.9648V46.2695H181.476C181.658 47.6497 182.205 48.7565 183.116 49.5898C184.041 50.4232 185.206 50.8398 186.612 50.8398C188.787 50.8398 190.486 50.0521 191.71 48.4766L194.484 51.582C193.637 52.7799 192.491 53.7174 191.046 54.3945C189.601 55.0586 187.999 55.3906 186.241 55.3906ZM185.597 38.0469C184.477 38.0469 183.566 38.4245 182.862 39.1797C182.172 39.9349 181.73 41.0156 181.534 42.4219H189.386V41.9727C189.36 40.7227 189.021 39.7591 188.37 39.082C187.719 38.3919 186.795 38.0469 185.597 38.0469ZM205.713 28.6719V33.8672H209.327V38.0078H205.713V48.5547C205.713 49.3359 205.863 49.8958 206.162 50.2344C206.462 50.5729 207.035 50.7422 207.881 50.7422C208.506 50.7422 209.06 50.6966 209.541 50.6055V54.8828C208.435 55.2214 207.295 55.3906 206.123 55.3906C202.165 55.3906 200.147 53.3919 200.069 49.3945V38.0078H196.983V33.8672H200.069V28.6719H205.713Z" fill="#5A3FCC" fill-opacity="0.9"/>
</svg>
